<svg xmlns="http://www.w3.org/2000/svg" aria-hidden="true" style="position:absolute;width:0;height:0;overflow:hidden">
  <defs>
    <symbol id="visa" viewBox="0 0 36 32">
      <path d="M29.381 14.456s.475 2.325.581 2.813h-2.087c.206-.556 1-2.719 1-2.719-.012.019.206-.569.331-.931l.175.838zM36 5v22c0 1.656-1.344 3-3 3H3c-1.656 0-3-1.344-3-3V5c0-1.656 1.344-3 3-3h30c1.656 0 3 1.344 3 3zM9.531 20.7l3.95-9.7h-2.656l-2.456 6.625-.269-1.344-.875-4.463c-.144-.619-.588-.794-1.138-.819H2.043l-.044.194c.988.25 1.869.613 2.638 1.069L6.874 20.7H9.53zm5.9.012 1.575-9.713h-2.512l-1.569 9.713h2.506zm8.744-3.174c.012-1.106-.663-1.95-2.106-2.644-.881-.444-1.419-.744-1.419-1.2.012-.412.456-.838 1.444-.838a4.3 4.3 0 0 1 1.869.369l.225.106.344-2.1a6.238 6.238 0 0 0-2.25-.412c-2.481 0-4.225 1.325-4.238 3.213-.019 1.394 1.25 2.169 2.2 2.638.969.475 1.3.788 1.3 1.206-.012.65-.788.95-1.506.95-1 0-1.538-.156-2.356-.519l-.331-.156-.35 2.181c.587.269 1.675.506 2.8.519 2.637.006 4.356-1.3 4.375-3.313zM33 20.712l-2.025-9.713h-1.944c-.6 0-1.056.175-1.313.806l-3.731 8.906h2.637s.431-1.2.525-1.456h3.225c.075.344.3 1.456.3 1.456h2.325z"/>
    </symbol>
    <symbol id="apple-pay" viewBox="0 0 36 32">
      <path d="M18.887 13.65c0 1.075-.656 1.694-1.813 1.694h-1.519v-3.387h1.525c1.15 0 1.806.613 1.806 1.694zm2.969 3.913c0 .519.45.856 1.156.856.9 0 1.575-.569 1.575-1.369v-.481l-1.469.094c-.831.056-1.262.363-1.262.9zM36 4.938v22c0 1.656-1.344 3-3 3H3c-1.656 0-3-1.344-3-3v-22c0-1.656 1.344-3 3-3h30c1.656 0 3 1.344 3 3zM7.987 12.325c.525.044 1.05-.262 1.381-.65.325-.4.537-.938.481-1.481-.463.019-1.037.306-1.369.706-.3.344-.556.9-.494 1.425zm3.788 4.656c-.012-.012-1.225-.475-1.238-1.875-.012-1.169.956-1.731 1-1.762-.55-.813-1.4-.9-1.694-.919-.762-.044-1.412.431-1.775.431-.369 0-.919-.412-1.519-.4a2.24 2.24 0 0 0-1.906 1.162c-.819 1.412-.213 3.5.581 4.65.388.569.856 1.194 1.469 1.169.581-.025.813-.375 1.512-.375.706 0 .906.375 1.519.369.637-.012 1.031-.569 1.425-1.137.431-.65.613-1.275.625-1.313zm8.463-3.337c0-1.662-1.156-2.8-2.806-2.8h-3.2v8.525h1.325v-2.913h1.831c1.675 0 2.85-1.15 2.85-2.813zm5.625 1.481c0-1.231-.988-2.025-2.5-2.025-1.406 0-2.444.806-2.481 1.906h1.194c.1-.525.587-.869 1.25-.869.813 0 1.262.375 1.262 1.075v.469l-1.65.1c-1.538.094-2.369.725-2.369 1.819 0 1.106.856 1.837 2.087 1.837.831 0 1.6-.419 1.95-1.087h.025v1.025h1.225v-4.25zm6.387-1.944h-1.344l-1.556 5.037h-.025l-1.556-5.037h-1.394l2.244 6.206-.119.375c-.2.637-.531.887-1.119.887-.106 0-.306-.012-.387-.019v1.025c.075.025.406.031.506.031 1.294 0 1.9-.494 2.431-1.988l2.319-6.519z"/>
    </symbol>
    <symbol id="cart" viewBox="0 0 36 32">
      <path d="M0 1.5C0 .669.669 0 1.5 0h2.844c1.375 0 2.594.8 3.162 2h25.688a2.499 2.499 0 0 1 2.413 3.15l-2.563 9.519A4.506 4.506 0 0 1 28.7 18H10.669l.338 1.781A1.506 1.506 0 0 0 12.482 21h18.019c.831 0 1.5.669 1.5 1.5s-.669 1.5-1.5 1.5H12.482a4.496 4.496 0 0 1-4.419-3.656L4.838 3.406A.498.498 0 0 0 4.344 3H1.5C.669 3 0 2.331 0 1.5zM8 29a3 3 0 1 1 6 0 3 3 0 1 1-6 0zm21-3a3 3 0 1 1 0 6 3 3 0 1 1 0-6z"/>
    </symbol>
    <symbol id="facebook" viewBox="0 0 32 32">
      <path d="M19.52 4.64h.96v3.6h-1.2c-.48 0-.96 0-1.2.24s-.24.48-.24 1.04v1.28h2.64v3.04h-2.64v13.2h-4.08V13.76H11.6v-3.04h2.16V9.68c0-1.76.24-3.04.72-3.6.72-1.04 2.16-1.52 4.32-1.52.24.08.48.08.72.08z"/>
    </symbol>
  </defs>
</svg>
